# xmcd
#
# Track frame offsets:
#	150
#	21981
#	36010
#	53254
#	69447
#	87200
#	100163
#	116066
#	130355
#	144251
#	160462
#	179572
#	195842
#	208984
#	225314
#	242559
#	261755
#
# Disc length: 3690 seconds
#
# Revision: 3
# Processed by: cddbd v1.5.2PL0 Copyright (c) Steve Scherf et al.
# Submitted via: audiograbber 1.83.01
#
DISCID=e20e6811
DTITLE=Promo Only Canada - Country Radio August 2003 
DYEAR=2003
DGENRE=Country
TTITLE0=Montgomery Gentry - Hell Yeah
TTITLE1=Faith Hill - Youre Still Here
TTITLE2=Dierks Bently - What Was I Thinkin
TTITLE3=Doc Walker - The Show Is Free
TTITLE4=Gary Allan - Tough Little Boys
TTITLE5=Dean Miller - The Gun Aint Loaded 
TTITLE6=Jo Dee Messina - I Wish 
TTITLE7=Kenny Rogers - Im Missing You
TTITLE8=Phil Vassar - Ultimate Love
TTITLE9=Wynonna - What The World Needs
TTITLE10=Rodney Atkins - Honestly Write Me A List
TTITLE11=Warren Brothers The - Break The Record 
TTITLE12=Marty Stuart - If There Aint There Oughta Be
TTITLE13=Patty Loveless - Lovin All Night
TTITLE14=Dolly Parton - Im Gone
TTITLE15=Matt Linsin -  Can I Will I Do I
TTITLE16=Alison Page - Send A Message
EXTD=
EXTT0=
EXTT1=
EXTT2=
EXTT3=
EXTT4=
EXTT5=
EXTT6=
EXTT7=
EXTT8=
EXTT9=
EXTT10=
EXTT11=
EXTT12=
EXTT13=
EXTT14=
EXTT15=
EXTT16=
PLAYORDER=
